<svg xmlns="http://www.w3.org/2000/svg" xmlns:xlink="http://www.w3.org/1999/xlink" id="Layer_1" x="0px" y="0px" viewBox="0 0 511 139" style="enable-background:new 0 0 511 139;" xml:space="preserve"><style type="text/css">	.st0{fill:#FFFFFF;}</style><g>	<g>		<path class="st0" d="M87.42,73.51c0,14.82,0.01,28.96,0,43.1c-0.01,7.49-0.02,7.59-7.25,7.5c-13.8-0.16-12.1,1.98-12.15-12.24   c-0.09-21.99,0.13-43.99-0.13-65.98c-0.07-5.45,1.87-6.52,7.07-7.03c9.22-0.9,14.69,2.27,19.21,10.37   c6.81,12.2,14.97,23.66,22.57,35.42c1.06,1.64,2.2,3.24,3.45,5.08c1.83-2.21,1.2-4.14,1.2-5.89c0.02-13.98-0.27-27.96,0.01-41.93   c0.1-5.01-1.56-6.78-6.43-6.24c-1.52,0.17-3.7,0.75-4.45-1.28c-0.57-1.55,0.95-2.69,1.92-3.8c5.15-5.92,10.39-11.77,15.45-17.76   c2.31-2.74,4.14-3.21,6.67-0.18c5.27,6.31,10.78,12.41,16.15,18.64c0.82,0.94,2.07,1.95,1.39,3.38c-0.69,1.46-2.34,1.19-3.52,1.01   c-6.41-1.02-7.22,2.3-7.18,7.71c0.17,24.79-0.14,49.58-0.03,74.36c0.02,4.69-1.27,6.06-6.25,6.63   c-10.07,1.13-16.09-2.32-20.96-11.27c-6.58-12.1-14.74-23.36-22.27-34.94C90.91,76.66,90.31,74.78,87.42,73.51z"></path>		<path class="st0" d="M435.85,90.8c-5.08-1.51-7.06,1.04-8.75,5.64c-7.86,21.28-30.75,34.78-52.66,31.5   c-24.42-3.65-41.3-21.82-43.25-46.55c-1.69-21.5,13.56-43.27,35.45-49.43c15.85-4.46,30.81-1.83,44.23,8.13   c2.76,2.05,3.82,3.97,0.92,6.68c-0.81,0.76-1.41,1.74-2.13,2.6c-5.05,6.09-5.05,6.09-11.96,1.96   c-15.5-9.27-35.99-4.11-45.16,11.36c-9.17,15.47-4.07,35.05,11.53,44.27c15.67,9.27,35.75,4.02,44.92-11.74   c3.3-5.68,2.86-6.41-3.54-6.86c-3.05-0.22-7.31,1.27-8.74-2.02c-1.43-3.27,2.63-5.37,4.49-7.74c5.2-6.6,10.66-12.99,16.1-19.4   c3.63-4.28,5.56-4.23,8.56,0.43c4.95,7.69,9.76,15.46,14.5,23.28c1.19,1.97,3.76,3.93,2.32,6.43   C441.23,91.88,438.19,90.07,435.85,90.8z"></path>		<path class="st0" d="M315.11,124.13c-7.79,2.49-12.92-2.3-17.11-9.62c-2.77-4.84-6.33-9.24-9.55-13.83   c-3.81-5.43-3.84-5.44-7.51-0.2c-4.62,6.58-9.28,13.12-13.74,19.8c-1.85,2.77-4.03,4.07-7.44,3.9c-4.68-0.23-9.38-0.03-14.07-0.07   c-1.27-0.01-2.95,0.5-3.68-0.67c-0.98-1.56,0.65-2.74,1.46-3.89c8.6-12.23,17.12-24.52,25.96-36.57c2.54-3.46,2.48-5.94,0.01-9.36   c-7.1-9.85-13.86-19.95-20.7-29.98c-0.79-1.16-2.42-2.47-1.27-3.88c0.6-0.73,2.42-0.6,3.7-0.65c17.2-0.62,17.2-0.61,26.95,13.55   c0.21,0.31,0.43,0.61,0.64,0.92c6.43,9.39,6.66,9.47,11.97-0.56c2.29-4.33,4.93-8.38,7.98-12.13c2.89-3.55,2.99-6.05-1.31-8.31   c-1.42-0.75-3.5-1.62-3.29-3.45c0.27-2.32,2.77-2.09,4.49-2.52c7.28-1.82,14.59-3.48,21.85-5.38c3.62-0.95,5.61-0.5,5.87,3.88   c0.47,7.81,1.46,15.58,2.16,23.38c0.13,1.43,0.67,3.26-0.7,4.19c-1.53,1.04-2.92-0.45-3.9-1.37c-3.88-3.65-6.33-2.65-9.08,1.61   c-4.45,6.9-9.21,13.65-14.42,19.99c-3.46,4.21-2.79,7.11,0.28,11.12c8.64,11.27,16.86,22.86,25.19,34.36   c1.06,1.46,3.3,2.96,2.46,4.69c-1.03,2.13-3.7,0.82-5.64,1C320.64,124.28,318.56,124.13,315.11,124.13z"></path>		<path class="st0" d="M171.83,81.75c0-12.3,0.13-24.61-0.07-36.91c-0.07-4.28,1.23-5.92,5.76-5.84   c12.57,0.21,25.14-0.16,37.71,0.01c4.59,0.06,7.32-0.92,6.71-6.13c-0.14-1.22-0.36-2.87,1.21-3.39c1.4-0.46,2.41,0.77,3.41,1.58   c5.37,4.37,10.68,8.81,16.1,13.12c2.3,1.83,2.53,3.33,0.2,5.34c-5.38,4.64-10.63,9.44-15.97,14.13c-0.93,0.81-1.84,2.18-3.33,1.46   c-1.18-0.57-1-1.98-0.86-3.01c0.7-5.07-1.55-6.38-6.42-6.09c-6.73,0.4-13.5,0.13-20.25-0.07c-3.66-0.11-4.95,1.35-4.9,4.94   c0.21,14.04-1.26,11.68,11.37,11.92c2.25,0.04,4.52-0.19,6.75,0.05c3.22,0.35,7.77-1.78,9.37,1.55c1.97,4.11,1.02,9.18,0.39,13.77   c-0.32,2.37-2.9,1.95-4.69,1.97c-5.82,0.08-11.64,0.17-17.45,0.01c-3.9-0.11-5.85,0.99-5.76,5.34   c0.29,13.82-1.31,11.47,11.59,11.69c4.5,0.08,9.01,0.1,13.51,0.01c3.1-0.06,4.17,1.33,4.39,4.35   c0.91,12.57,0.99,12.56-11.84,12.56c-10.51,0-21.02-0.15-31.52,0.07c-4.23,0.09-5.53-1.48-5.47-5.54   C171.95,106.36,171.83,94.06,171.83,81.75z"></path>	</g></g></svg>